<svg width="48" height="48" viewBox="0 0 48 48" fill="none" xmlns="http://www.w3.org/2000/svg">
<path d="M17.7063 27.057L15.964 27.2211L17.7063 27.057ZM18.0245 30.4372L19.7668 30.2732L18.0245 30.4372ZM21.7143 36.6888L22.7 35.2428L22.7 35.2428L21.7143 36.6888ZM21.9982 36.8823L21.0125 38.3283L21.0125 38.3283L21.9982 36.8823ZM26.0037 36.8823L25.0181 35.4363L25.0181 35.4363L26.0037 36.8823ZM26.2876 36.6888L27.2733 38.1348L27.2733 38.1348L26.2876 36.6888ZM29.9774 30.4372L31.7196 30.6013V30.6013L29.9774 30.4372ZM30.2956 27.0571L32.0379 27.2211L30.2956 27.0571ZM21.9183 24.0275L22.7719 25.5552L21.9183 24.0275ZM18.6594 25.542L18.021 23.9126L18.6594 25.542ZM29.3425 25.542L28.7042 27.1715V27.1715L29.3425 25.542ZM26.0836 24.0275L26.9371 22.4998L26.0836 24.0275ZM12.5 12.75C13.4665 12.75 14.25 11.9665 14.25 11C14.25 10.0335 13.4665 9.25 12.5 9.25V12.75ZM12 9.25C11.0335 9.25 10.25 10.0335 10.25 11C10.25 11.9665 11.0335 12.75 12 12.75V9.25ZM17.5 12.75C18.4665 12.75 19.25 11.9665 19.25 11C19.25 10.0335 18.4665 9.25 17.5 9.25V12.75ZM17 9.25C16.0335 9.25 15.25 10.0335 15.25 11C15.25 11.9665 16.0335 12.75 17 12.75V9.25ZM22.5 12.75C23.4665 12.75 24.25 11.9665 24.25 11C24.25 10.0335 23.4665 9.25 22.5 9.25V12.75ZM22 9.25C21.0335 9.25 20.25 10.0335 20.25 11C20.25 11.9665 21.0335 12.75 22 12.75V9.25ZM4 15.25C3.0335 15.25 2.25 16.0335 2.25 17C2.25 17.9665 3.0335 18.75 4 18.75V15.25ZM44 18.75C44.9665 18.75 45.75 17.9665 45.75 17C45.75 16.0335 44.9665 15.25 44 15.25V18.75ZM9.46009 42.9101L10.2546 41.3508H10.2546L9.46009 42.9101ZM5.08993 38.5399L6.6492 37.7454H6.6492L5.08993 38.5399ZM42.9101 38.5399L41.3508 37.7454L42.9101 38.5399ZM38.5399 42.9101L37.7454 41.3508L38.5399 42.9101ZM38.5399 5.08993L37.7454 6.6492V6.6492L38.5399 5.08993ZM42.9101 9.46009L41.3508 10.2546V10.2546L42.9101 9.46009ZM9.46009 5.08993L10.2546 6.6492L9.46009 5.08993ZM5.08993 9.46009L6.6492 10.2546H6.6492L5.08993 9.46009ZM15.964 27.2211L16.2822 30.6013L19.7668 30.2732L19.4486 26.893L15.964 27.2211ZM20.7286 38.1348L21.0125 38.3283L22.9838 35.4363L22.7 35.2428L20.7286 38.1348ZM26.9894 38.3283L27.2733 38.1348L25.3019 35.2428L25.0181 35.4363L26.9894 38.3283ZM31.7196 30.6013L32.0379 27.2211L28.5533 26.893L28.2351 30.2732L31.7196 30.6013ZM21.0648 22.4998C19.9896 23.1005 18.8325 23.5947 18.021 23.9126L19.2977 27.1715C20.1832 26.8246 21.5026 26.2644 22.7719 25.5552L21.0648 22.4998ZM29.9809 23.9126C29.1694 23.5947 28.0123 23.1005 26.9371 22.4998L25.23 25.5552C26.4993 26.2644 27.8187 26.8246 28.7042 27.1715L29.9809 23.9126ZM22.7719 25.5552C23.5003 25.1483 24.5016 25.1483 25.23 25.5552L26.9371 22.4998C25.1478 21.5001 22.8541 21.5001 21.0648 22.4998L22.7719 25.5552ZM32.0379 27.2211C32.1768 25.7457 31.2852 24.4236 29.9809 23.9126L28.7042 27.1715C28.6312 27.1429 28.5384 27.0518 28.5533 26.893L32.0379 27.2211ZM27.2733 38.1348C29.8028 36.4106 31.4327 33.6491 31.7196 30.6013L28.2351 30.2732C28.0458 32.2837 26.9706 34.1054 25.3019 35.2428L27.2733 38.1348ZM21.0125 38.3283C22.8153 39.5572 25.1866 39.5572 26.9894 38.3283L25.0181 35.4363C24.4045 35.8546 23.5974 35.8546 22.9838 35.4363L21.0125 38.3283ZM16.2822 30.6013C16.5692 33.6491 18.1991 36.4106 20.7286 38.1348L22.7 35.2428C21.0313 34.1054 19.9561 32.2837 19.7668 30.2732L16.2822 30.6013ZM19.4486 26.893C19.4635 27.0518 19.3707 27.1429 19.2977 27.1715L18.021 23.9126C16.7167 24.4236 15.8251 25.7457 15.964 27.2211L19.4486 26.893ZM12.5 9.25H12V12.75H12.5V9.25ZM17.5 9.25H17V12.75H17.5V9.25ZM22.5 9.25H22V12.75H22.5V9.25ZM4 18.75H4.00833V15.25H4V18.75ZM4.00833 18.75H43.9917V15.25H4.00833V18.75ZM43.9917 18.75H44V15.25H43.9917V18.75ZM20 5.75H28V2.25H20V5.75ZM42.25 20V28H45.75V20H42.25ZM28 42.25H20V45.75H28V42.25ZM5.75 28V20H2.25V28H5.75ZM20 42.25C17.1709 42.25 15.1543 42.2486 13.5745 42.1196C12.0152 41.9922 11.0363 41.7491 10.2546 41.3508L8.66561 44.4693C10.023 45.1609 11.5138 45.4629 13.2895 45.6079C15.0448 45.7514 17.2286 45.75 20 45.75V42.25ZM2.25 28C2.25 30.7714 2.24864 32.9552 2.39205 34.7105C2.53714 36.4862 2.83905 37.977 3.53067 39.3344L6.6492 37.7454C6.25088 36.9637 6.00783 35.9848 5.88043 34.4255C5.75136 32.8457 5.75 30.8291 5.75 28H2.25ZM10.2546 41.3508C8.70224 40.5598 7.44015 39.2978 6.6492 37.7454L3.53067 39.3344C4.65719 41.5453 6.45471 43.3428 8.66561 44.4693L10.2546 41.3508ZM42.25 28C42.25 30.8291 42.2486 32.8457 42.1196 34.4255C41.9922 35.9848 41.7491 36.9637 41.3508 37.7454L44.4693 39.3344C45.1609 37.977 45.4629 36.4862 45.6079 34.7105C45.7514 32.9552 45.75 30.7714 45.75 28H42.25ZM28 45.75C30.7714 45.75 32.9552 45.7514 34.7105 45.6079C36.4862 45.4629 37.977 45.1609 39.3344 44.4693L37.7454 41.3508C36.9637 41.7491 35.9848 41.9922 34.4255 42.1196C32.8457 42.2486 30.8291 42.25 28 42.25V45.75ZM41.3508 37.7454C40.5598 39.2978 39.2978 40.5598 37.7454 41.3508L39.3344 44.4693C41.5453 43.3428 43.3428 41.5453 44.4693 39.3344L41.3508 37.7454ZM28 5.75C30.8291 5.75 32.8457 5.75136 34.4255 5.88043C35.9848 6.00783 36.9637 6.25088 37.7454 6.6492L39.3344 3.53067C37.977 2.83905 36.4862 2.53714 34.7105 2.39205C32.9552 2.24864 30.7714 2.25 28 2.25V5.75ZM45.75 20C45.75 18.8989 45.75 17.8958 45.7416 16.9838L42.2417 17.0162C42.25 17.9087 42.25 18.8947 42.25 20H45.75ZM45.7416 16.9838C45.7082 13.3649 45.5598 10.8058 44.4693 8.66561L41.3508 10.2546C42.0108 11.5499 42.2072 13.2789 42.2417 17.0162L45.7416 16.9838ZM37.7454 6.6492C39.2978 7.44015 40.5598 8.70224 41.3508 10.2546L44.4693 8.66561C43.3428 6.45471 41.5453 4.65719 39.3344 3.53067L37.7454 6.6492ZM20 2.25C17.2286 2.25 15.0448 2.24864 13.2895 2.39205C11.5138 2.53714 10.023 2.83905 8.66561 3.53067L10.2546 6.6492C11.0363 6.25088 12.0152 6.00783 13.5745 5.88043C15.1543 5.75136 17.1709 5.75 20 5.75V2.25ZM5.75 20C5.75 18.8947 5.75001 17.9087 5.75826 17.0162L2.25841 16.9838C2.24999 17.8958 2.25 18.8989 2.25 20H5.75ZM5.75826 17.0162C5.79276 13.2789 5.98919 11.5499 6.6492 10.2546L3.53067 8.66561C2.44021 10.8058 2.29182 13.3649 2.25841 16.9838L5.75826 17.0162ZM8.66561 3.53067C6.45471 4.65719 4.65719 6.45471 3.53067 8.66561L6.6492 10.2546C7.44015 8.70224 8.70224 7.44015 10.2546 6.6492L8.66561 3.53067Z" fill="#27AE60"/>
</svg>
