<?xml version="1.0" encoding="UTF-8"?> <svg xmlns="http://www.w3.org/2000/svg" width="35" height="35" viewBox="0 0 35 35" fill="none"> <path d="M17.4993 2.91699C21.147 6.91042 23.22 12.0929 23.3327 17.5003C23.22 22.9078 21.147 28.0902 17.4993 32.0837M17.4993 2.91699C13.8516 6.91042 11.7787 12.0929 11.666 17.5003C11.7787 22.9078 13.8516 28.0902 17.4993 32.0837M17.4993 2.91699C9.4452 2.91699 2.91602 9.44617 2.91602 17.5003C2.91602 25.5545 9.4452 32.0837 17.4993 32.0837M17.4993 2.91699C25.5535 2.91699 32.0827 9.44617 32.0827 17.5003C32.0827 25.5545 25.5535 32.0837 17.4993 32.0837M3.64521 13.1253H31.3535M3.64518 21.8753H31.3535" stroke="#C3CBFF" stroke-width="3" stroke-linecap="round" stroke-linejoin="round"></path> </svg> 