<svg width="42" height="42" viewBox="0 0 42 42" fill="none" xmlns="http://www.w3.org/2000/svg">
<path d="M16.085 12.6311C15.8101 13.4126 16.2208 14.269 17.0022 14.5439C17.7837 14.8188 18.6401 14.4082 18.915 13.6267L16.085 12.6311ZM19.218 11.0425L19.9781 12.3357L19.218 11.0425ZM21.8768 10.5566L22.1304 9.07823L21.8768 10.5566ZM24.2217 11.9007L25.3692 10.9347V10.9347L24.2217 11.9007ZM25.1462 14.4404L23.6462 14.4382V14.4404H25.1462ZM21.2116 18.375L20.7373 16.952L19.7116 17.2939V18.375H21.2116ZM21.2623 23C20.4339 23 19.7623 23.6716 19.7623 24.5C19.7623 25.3284 20.4339 26 21.2623 26V23ZM21.2798 26C22.1083 26 22.7798 25.3284 22.7798 24.5C22.7798 23.6716 22.1083 23 21.2798 23V26ZM19.7116 19.9384C19.7116 20.7668 20.3832 21.4384 21.2116 21.4384C22.04 21.4384 22.7116 20.7668 22.7116 19.9384H19.7116ZM16.3313 35.4555L15.3348 34.3344L16.3313 35.4555ZM22.2527 30.192L23.2493 31.3131L22.2527 30.192ZM18.915 13.6267C19.1058 13.0843 19.4824 12.627 19.9781 12.3357L18.458 9.74926C17.3515 10.3995 16.5109 11.4205 16.085 12.6311L18.915 13.6267ZM19.9781 12.3357C20.4737 12.0443 21.0565 11.9379 21.6232 12.0351L22.1304 9.07823C20.8654 8.86126 19.5645 9.09897 18.458 9.74926L19.9781 12.3357ZM21.6232 12.0351C22.1899 12.1322 22.7038 12.4269 23.0741 12.8667L25.3692 10.9347C24.5427 9.95286 23.3953 9.29521 22.1304 9.07823L21.6232 12.0351ZM23.0741 12.8667C23.4444 13.3066 23.647 13.8633 23.6462 14.4382L26.6462 14.4427C26.6481 13.1592 26.1957 11.9166 25.3692 10.9347L23.0741 12.8667ZM23.6462 14.4404C23.6462 14.9557 23.2399 15.5479 22.3468 16.1433C21.946 16.4105 21.5344 16.6174 21.2172 16.7584C21.0607 16.8279 20.9324 16.8791 20.8467 16.9118C20.804 16.9281 20.7722 16.9396 20.7533 16.9463C20.7438 16.9497 20.7376 16.9518 20.7348 16.9528C20.7335 16.9532 20.733 16.9534 20.7334 16.9533C20.7336 16.9532 20.734 16.9531 20.7346 16.9529C20.735 16.9527 20.7353 16.9526 20.7358 16.9525C20.736 16.9524 20.7364 16.9523 20.7365 16.9522C20.7369 16.9521 20.7373 16.952 21.2116 18.375C21.6859 19.798 21.6864 19.7979 21.6868 19.7977C21.687 19.7977 21.6875 19.7975 21.6878 19.7974C21.6885 19.7972 21.6892 19.7969 21.69 19.7967C21.6916 19.7961 21.6935 19.7955 21.6956 19.7948C21.6997 19.7934 21.7049 19.7916 21.7109 19.7895C21.7231 19.7854 21.7389 19.7798 21.7583 19.773C21.797 19.7592 21.8498 19.74 21.9147 19.7153C22.0441 19.6659 22.2232 19.5942 22.4356 19.4998C22.8561 19.3129 23.4282 19.0279 24.0109 18.6394C25.0852 17.9233 26.6462 16.5483 26.6462 14.4404H23.6462ZM21.2623 26H21.2798V23H21.2623V26ZM19.7116 18.375V19.9384H22.7116V18.375H19.7116ZM12.25 6.75H29.75V3.75H12.25V6.75ZM35.25 12.25V22.75H38.25V12.25H35.25ZM6.75 22.75V12.25H3.75V22.75H6.75ZM29.75 28.25H23.4153V31.25H29.75V28.25ZM13.125 28.25H12.25V31.25H13.125V28.25ZM21.2562 29.0709L15.3348 34.3344L17.3279 36.5766L23.2493 31.3131L21.2562 29.0709ZM16.375 34.8015V31.5H13.375V34.8015H16.375ZM15.3348 34.3344C15.7378 33.9761 16.375 34.2622 16.375 34.8015H13.375C13.375 36.8508 15.7962 37.9381 17.3279 36.5766L15.3348 34.3344ZM13.125 31.25C13.2631 31.25 13.375 31.3619 13.375 31.5H16.375C16.375 29.7051 14.9199 28.25 13.125 28.25V31.25ZM23.4153 28.25C22.6194 28.25 21.8511 28.5421 21.2562 29.0709L23.2493 31.3131C23.295 31.2725 23.3541 31.25 23.4153 31.25V28.25ZM3.75 22.75C3.75 27.4444 7.55558 31.25 12.25 31.25V28.25C9.21243 28.25 6.75 25.7876 6.75 22.75H3.75ZM35.25 22.75C35.25 25.7876 32.7876 28.25 29.75 28.25V31.25C34.4444 31.25 38.25 27.4444 38.25 22.75H35.25ZM29.75 6.75C32.7876 6.75 35.25 9.21243 35.25 12.25H38.25C38.25 7.55558 34.4444 3.75 29.75 3.75V6.75ZM12.25 3.75C7.55558 3.75 3.75 7.55558 3.75 12.25H6.75C6.75 9.21243 9.21243 6.75 12.25 6.75V3.75Z" fill="#EEF0FF"/>
</svg>
