<svg width="54" height="54" viewBox="0 0 54 54" fill="none" xmlns="http://www.w3.org/2000/svg">
<path d="M21.7786 22.2103C21.0663 21.366 19.8045 21.2591 18.9603 21.9714C18.116 22.6837 18.0091 23.9455 18.7214 24.7897L21.7786 22.2103ZM27 31.5L25.4714 32.7897C25.8514 33.2401 26.4107 33.5 27 33.5C27.5893 33.5 28.1486 33.2401 28.5286 32.7897L27 31.5ZM35.2786 24.7897C35.9909 23.9455 35.884 22.6837 35.0397 21.9714C34.1955 21.2591 32.9337 21.366 32.2214 22.2103L35.2786 24.7897ZM29 13.5C29 12.3954 28.1046 11.5 27 11.5C25.8954 11.5 25 12.3954 25 13.5H29ZM6.75 40.75C5.64543 40.75 4.75 41.6454 4.75 42.75C4.75 43.8546 5.64543 44.75 6.75 44.75V40.75ZM47.25 44.75C48.3546 44.75 49.25 43.8546 49.25 42.75C49.25 41.6454 48.3546 40.75 47.25 40.75V44.75ZM18.7214 24.7897L25.4714 32.7897L28.5286 30.2103L21.7786 22.2103L18.7214 24.7897ZM28.5286 32.7897L35.2786 24.7897L32.2214 22.2103L25.4714 30.2103L28.5286 32.7897ZM29 31.5V13.5H25V31.5H29ZM6.75 44.75H47.25V40.75H6.75V44.75Z" fill="#9DA9FB"/>
</svg>
