<svg width="35" height="35" viewBox="0 0 35 35" fill="none" xmlns="http://www.w3.org/2000/svg">
<path d="M17.5 2.91663C21.1477 6.91006 23.2207 12.0925 23.3333 17.5C23.2207 22.9074 21.1477 28.0899 17.5 32.0833M17.5 2.91663C13.8523 6.91006 11.7793 12.0925 11.6667 17.5C11.7793 22.9074 13.8523 28.0899 17.5 32.0833M17.5 2.91663C9.44585 2.91663 2.91667 9.44581 2.91667 17.5C2.91667 25.5541 9.44585 32.0833 17.5 32.0833M17.5 2.91663C25.5542 2.91663 32.0833 9.44581 32.0833 17.5C32.0833 25.5541 25.5542 32.0833 17.5 32.0833M3.64587 13.125H31.3542M3.64584 21.875H31.3542" stroke="#ABFFCF" stroke-width="3" stroke-linecap="round" stroke-linejoin="round"/>
</svg>
