<svg width="24" height="25" viewBox="0 0 24 25" fill="none" xmlns="http://www.w3.org/2000/svg">
<path d="M18.7453 4.97555L20.2208 3.5M18.7453 4.97555L21.8634 8.09362M18.7453 4.97555L16.2508 7.47001M12.5926 11.1282L16.2508 7.47001M16.2508 7.47001L18.1217 9.34085M8.20001 21.5208C4.8863 21.5208 2.20001 18.8345 2.20001 15.5208C2.20001 12.2071 4.8863 9.52082 8.20001 9.52082C11.5137 9.52082 14.2 12.2071 14.2 15.5208C14.2 18.8345 11.5137 21.5208 8.20001 21.5208ZM8.20001 17.5208C7.09544 17.5208 6.20001 16.6254 6.20001 15.5208C6.20001 14.4162 7.09544 13.5208 8.20001 13.5208C9.30458 13.5208 10.2 14.4162 10.2 15.5208C10.2 16.6254 9.30458 17.5208 8.20001 17.5208Z" stroke="#F5F5F5" stroke-width="1.5" stroke-linecap="round" stroke-linejoin="round"/>
</svg>
