<svg width="46" height="46" viewBox="0 0 46 46" fill="none" xmlns="http://www.w3.org/2000/svg">
<path d="M25.6354 19.3584H20.3646M25.6354 19.3584C27.0909 19.3584 28.2708 20.5597 28.2708 22.0417V26.0667C28.2708 27.5487 27.0909 28.75 25.6354 28.75H20.3646C18.9091 28.75 17.7292 27.5487 17.7292 26.0667V22.0417C17.7292 20.5597 18.9091 19.3584 20.3646 19.3584M25.6354 19.3584V18.0167C25.6354 16.5347 24.4555 15.3334 23 15.3334C21.5445 15.3334 20.3646 16.5347 20.3646 18.0167V19.3584M6.03526 13.924L6.89302 23.0339C7.53483 29.8502 11.18 36.0263 16.8372 39.8825L17.6023 40.404C20.8585 42.6236 25.1415 42.6236 28.3977 40.404L29.1628 39.8825C34.82 36.0263 38.4652 29.8502 39.107 23.0339L39.9647 13.924C40.1318 12.1498 39.0553 10.491 37.3961 9.84091C35.1094 8.94506 31.7721 7.52419 28.6129 5.75912C25.2201 3.8635 20.7799 3.8635 17.3871 5.75912C14.2279 7.52419 10.8906 8.94506 8.60393 9.84091C6.94464 10.491 5.8682 12.1498 6.03526 13.924Z" stroke="#EEF0FF" stroke-width="2.8" stroke-linecap="round" stroke-linejoin="round"/>
</svg>
