<svg width="35" height="35" viewBox="0 0 35 35" fill="none" xmlns="http://www.w3.org/2000/svg">
<path d="M13.8542 18.2292L15.8428 20.4167L21.1458 14.5833M4.59205 10.5943L5.2447 17.5257C5.73303 22.7121 8.50653 27.4113 12.8109 30.3454L13.393 30.7422C15.8706 32.431 19.1294 32.431 21.607 30.7422L22.1891 30.3454C26.4935 27.4113 29.267 22.7121 29.7553 17.5257L30.408 10.5943C30.5351 9.24435 29.716 7.98223 28.4535 7.48762C26.7137 6.806 24.1744 5.7249 21.7707 4.38191C19.1892 2.93959 15.8108 2.93959 13.2293 4.38191C10.8256 5.7249 8.28635 6.806 6.54647 7.48762C5.28397 7.98223 4.46494 9.24435 4.59205 10.5943Z" stroke="#ABFFCF" stroke-width="3" stroke-linecap="round" stroke-linejoin="round"/>
</svg>
