<svg width="42" height="42" viewBox="0 0 42 42" fill="none" xmlns="http://www.w3.org/2000/svg">
<path d="M10.3889 14.875C12.507 11.2135 16.4659 8.75 21.0001 8.75C22.3679 8.75 23.6834 8.97418 24.9118 9.38781M33.0724 23.0905C32.5719 26.0017 31.0438 28.5617 28.8751 30.3837M28.8748 13.125L20.9998 21M38.5 21C38.5 30.665 30.665 38.5 21 38.5C11.335 38.5 3.5 30.665 3.5 21C3.5 11.335 11.335 3.5 21 3.5C30.665 3.5 38.5 11.335 38.5 21ZM22.75 21C22.75 21.9665 21.9665 22.75 21 22.75C20.0335 22.75 19.25 21.9665 19.25 21C19.25 20.0335 20.0335 19.25 21 19.25C21.9665 19.25 22.75 20.0335 22.75 21Z" stroke="#EEF0FF" stroke-width="3" stroke-linecap="round" stroke-linejoin="round"/>
</svg>
