<svg width="43" height="43" viewBox="0 0 43 43" fill="none" xmlns="http://www.w3.org/2000/svg">
<path d="M3.58333 20.0715C5.63697 12.1351 12.88 6.27084 21.5 6.27084C30.12 6.27084 37.363 12.1351 39.4167 20.0715M34.4497 24.6717C34.4497 17.558 28.6519 11.7911 21.5 11.7911C19.0587 11.7911 16.7752 12.4631 14.8262 13.6312M8.55037 32.9522V23.7517C8.55041 20.4844 9.46682 18.2973 11.3253 17.3114M15.9501 24.6717V23.7517C15.9501 20.7029 18.4349 18.2314 21.5 18.2314C24.5651 18.2314 27.0498 20.7029 27.0498 23.7517V34.7922M21.5 24.6717V39.3925M15.0251 31.1121V40.3125M34.4496 30.192V35.7123" stroke="#ABFFCF" stroke-width="3" stroke-linecap="round" stroke-linejoin="round"/>
</svg>
