<svg width="60" height="34" viewBox="0 0 60 34" fill="none" xmlns="http://www.w3.org/2000/svg">
<path d="M43.83 25.4012C42.45 25.4012 41.31 24.2848 41.31 22.897C41.31 21.5091 42.45 20.4229 43.83 20.4229C45.21 20.4229 46.35 21.5091 46.35 22.897C46.35 24.2848 45.21 25.4012 43.83 25.4012ZM16.23 25.4012C14.85 25.4012 13.71 24.2848 13.71 22.897C13.71 21.5091 14.85 20.4229 16.23 20.4229C17.61 20.4229 18.72 21.5091 18.72 22.897C18.72 24.2848 17.61 25.4012 16.23 25.4012ZM44.73 10.2854L49.74 1.59604C50.01 1.08313 49.83 0.449532 49.35 0.17799C48.84 -0.123723 48.21 0.0573054 48 0.570217L42.87 9.35006C38.8325 7.49221 34.4399 6.54482 30 6.5743C25.41 6.5743 21 7.56995 17.19 9.31989L12.12 0.540045C12.0564 0.417874 11.9684 0.310143 11.8617 0.223523C11.755 0.136903 11.6317 0.0732374 11.4996 0.0364688C11.3674 -0.000299871 11.2291 -0.00938945 11.0933 0.00976403C10.9575 0.0289175 10.827 0.0759062 10.71 0.14782C10.2 0.419361 10.05 1.05296 10.32 1.56587L15.3 10.2552C6.75 14.9619 0.87 23.6814 0 34H60C59.16 23.7116 53.31 14.9921 44.73 10.2854Z" fill="#27AE60"/>
</svg>
